<?xml version="1.0" encoding="UTF-8"?>
<svg version="1.1" xmlns="http://www.w3.org/2000/svg" width="1028" height="860">
<path d="M0 0 C1.6252093 -0.00300291 3.2504179 -0.00640798 4.87562561 -0.01017761 C9.23533078 -0.01890476 13.59501625 -0.02135083 17.95472932 -0.0219934 C20.69192023 -0.02271014 23.42910631 -0.02485603 26.16629601 -0.02749062 C35.75311978 -0.03670527 45.33992976 -0.04083022 54.92675781 -0.04003906 C63.80345781 -0.03943867 72.68009697 -0.04999302 81.55678159 -0.06578273 C89.23041241 -0.07893656 96.90402353 -0.08421973 104.57766551 -0.08358365 C109.13768872 -0.08333105 113.69765767 -0.08604906 118.25766945 -0.0967617 C158.35035616 -0.18429448 195.3974556 0.23013913 225.61450195 29.73144531 C228.28369527 32.40088545 230.94070151 35.08164815 233.59057617 37.77026367 C239.53678929 43.80265379 245.52632927 49.64228709 251.96557617 55.14526367 C253.03833185 56.10477871 254.10875386 57.066911 255.17651367 58.03198242 C284.3829817 84.07330785 315.69973193 93.50250041 354.27807617 94.70776367 C354.93408813 94.72861023 355.5901001 94.74945679 356.26599121 94.77093506 C368.17095461 95.14451876 380.05598022 95.33705775 391.96557617 95.14526367 C393.03888184 95.13269531 394.1121875 95.12012695 395.21801758 95.10717773 C421.74264885 94.73641552 436.18884406 89.12960207 455.34887695 70.68530273 C457.21604909 68.90666761 459.13392546 67.19975667 461.09057617 65.52026367 C471.21960873 56.75184743 480.76771051 47.45135602 490.16601562 37.90795898 C494.9255869 33.09577639 499.79730381 28.51577306 504.96557617 24.14526367 C506.26108398 23.04504883 506.26108398 23.04504883 507.58276367 21.92260742 C520.56717128 11.34188772 534.81850876 3.96565075 551.87963867 4.01245117 C553.0242733 4.01047226 553.0242733 4.01047226 554.19203186 4.00845337 C556.6582553 4.00654452 559.12436437 4.01285664 561.59057617 4.02026367 C562.42948395 4.0211499 563.26839172 4.02203613 564.13272095 4.02294922 C574.03680783 4.03529091 583.90453923 4.13907784 593.79077148 4.78491211 C599.14358165 5.13098809 604.47655998 5.25731102 609.84057617 5.27026367 C610.95758911 5.27703125 610.95758911 5.27703125 612.09716797 5.28393555 C614.89475802 5.27616896 617.55225603 5.23362996 620.2946167 4.64732361 C626.01192917 3.57264106 631.92960172 3.9534637 637.73120117 3.96166992 C638.84054394 3.9617615 638.84054394 3.9617615 639.97229767 3.96185493 C658.37886026 3.98496354 676.73113043 4.93511216 695.10552979 5.94122314 C698.62887719 6.13229119 702.15261172 6.31556025 705.67638779 6.49852657 C759.11153388 9.27422697 759.11153388 9.27422697 771.96557617 19.14526367 C772.83182617 19.72276367 773.69807617 20.30026367 774.59057617 20.89526367 C778.37628193 24.48172176 781.1318888 28.78729423 783.96557617 33.14526367 C784.486904 33.88977309 785.00823183 34.63428251 785.54535747 35.40135282 C787.25444366 38.70336548 787.33947075 40.87523593 787.33751297 44.58299351 C787.34739774 46.54713226 787.34739774 46.54713226 787.35748219 48.55095059 C787.34961296 50.0032526 787.34146509 51.45555312 787.33306885 52.90785217 C787.33509343 54.4530919 787.33843308 55.99833036 787.34297442 57.54356474 C787.35163772 61.79657236 787.3415403 66.0493622 787.32843208 70.30235088 C787.3175396 74.8943209 787.32394858 79.48627066 787.32821655 84.07824707 C787.33386869 93.11025303 787.32348011 102.1421744 787.30792859 111.17416597 C787.29027658 121.80958395 787.28896623 132.44498605 787.288313 143.08041637 C787.28661993 162.21134363 787.2707885 181.34223329 787.24682617 200.47314453 C787.22395206 218.74984047 787.20953036 237.02651256 787.20581055 255.30322266 C787.20557123 256.41269574 787.20533191 257.52216882 787.20508534 258.6652623 C787.2041221 263.1340839 787.20318006 267.60290552 787.20226386 272.07172713 C787.19206219 320.09268773 787.1240422 368.11335306 787.00497961 416.13416469 C786.97602073 427.93108323 786.95451648 439.72799058 786.93849632 451.5249333 C786.91858468 466.10079238 786.88335966 480.67644668 786.81418395 495.25216264 C786.78286898 501.90606243 786.75892306 508.55980025 786.75608063 515.2137928 C786.75315139 521.17881616 786.72746123 527.1432656 786.68236256 533.10811543 C786.67022936 535.22674153 786.66637442 537.34543525 786.67179394 539.46408916 C786.67782093 542.30771459 786.65338124 545.14949448 786.62103271 547.99290466 C786.63005088 548.7986095 786.63906905 549.60431434 786.64836049 550.43443447 C786.48559911 558.7112686 782.20939545 565.45331473 776.77026367 571.51245117 C769.39897329 578.1817139 761.02911877 581.29194612 751.32885742 582.20385742 C750.49139481 582.28671494 749.65393219 582.36957245 748.79109192 582.4549408 C739.92444596 583.29946972 731.0489396 583.79950601 722.15307617 584.20776367 C721.29793427 584.24884247 720.44279236 584.28992126 719.56173706 584.33224487 C702.9892057 585.12349172 686.41219181 585.52941312 669.82373047 585.80371094 C661.25059962 585.94953677 652.68882887 586.14417872 644.12573242 586.59838867 C643.41816299 586.63440689 642.71059357 586.67042511 641.98158264 586.70753479 C621.98077914 587.86653189 597.01376012 594.78951921 582.34057617 609.20776367 C581.20739334 610.51320533 580.08309877 611.82639124 578.96557617 613.14526367 C573.75133998 619.27779821 568.2327166 625.03030977 562.52807617 630.70776367 C561.72047852 631.51922852 560.91288086 632.33069336 560.08081055 633.16674805 C555.20471644 638.03498382 550.20031871 642.6672668 544.96557617 647.14526367 C543.93194836 648.05680573 542.89932387 648.96948734 541.86791992 649.88354492 C507.34555927 679.85750496 469.68809876 684.32115361 425.32990551 684.27958918 C421.69904195 684.27701001 418.06818058 684.27941965 414.43731689 684.28097534 C408.31489606 684.28278762 402.19248734 684.28042238 396.07006836 684.27563477 C389.88386236 684.27085122 383.69768053 684.27076883 377.51147461 684.27563477 C318.60747638 684.32071269 318.60747638 684.32071269 291.73120117 683.69995117 C290.44433033 683.6708283 290.44433033 683.6708283 289.1314621 683.6411171 C280.45883812 683.43718272 271.79691772 683.12253784 263.13427734 682.65600586 C262.02316904 682.59687924 262.02316904 682.59687924 260.88961411 682.53655815 C255.51212648 682.2283253 250.29370409 681.64462189 245.02807617 680.52026367 C243.80121094 680.2635791 243.80121094 680.2635791 242.54956055 680.00170898 C228.39533988 676.85090354 215.54301889 672.00465194 203.96557617 663.14526367 C202.62735998 662.14092361 201.28879336 661.13705035 199.94995117 660.13354492 C195.59018885 656.84448023 191.27339474 653.50194006 186.96557617 650.14526367 C186.00071289 649.395271 186.00071289 649.395271 185.01635742 648.63012695 C178.13794148 643.27844537 171.32589752 637.8541107 164.59838867 632.31323242 C162.84828091 630.87211995 161.09308005 629.43716964 159.33276367 628.00854492 C154.83370896 624.35552237 150.38864542 620.65769352 146.02172852 616.84838867 C124.01387573 597.71862808 105.46316444 587.04299709 75.58447266 586.97167969 C74.39924011 586.96499268 73.21400757 586.95830566 71.99285889 586.95141602 C69.43828256 586.93744867 66.88369436 586.92552879 64.32909966 586.91546822 C60.28023173 586.89893952 56.23145201 586.87590442 52.18263245 586.85057068 C40.67746694 586.77979774 29.17226131 586.71959988 17.66699219 586.66845703 C11.29465619 586.64005815 4.92239658 586.60463698 -1.44985908 586.56180328 C-4.81134385 586.53955204 -8.1726901 586.52213544 -11.53424263 586.51135445 C-15.28384219 586.49914926 -19.03319466 586.47497981 -22.78271484 586.44824219 C-23.87962143 586.44765305 -24.97652802 586.4470639 -26.10667419 586.44645691 C-40.5063899 586.31095892 -50.18660994 582.91730499 -60.78442383 572.89526367 C-72.57920238 560.44521965 -75.51419213 548.68663978 -75.34922791 531.90594482 C-75.34542163 530.38708078 -75.34292423 528.86821299 -75.34162295 527.34934473 C-75.33418222 523.22766506 -75.30778129 519.10630208 -75.27778979 514.98473293 C-75.24880624 510.56729397 -75.23704867 506.1498024 -75.222785 501.73229599 C-75.18586183 491.45643531 -75.12077792 481.18083712 -75.05231398 470.90514636 C-75.0235961 466.47488941 -74.99857035 462.0446126 -74.97343826 457.61433411 C-74.84557392 435.36587468 -74.6737639 413.1178745 -74.48555833 390.86985184 C-74.40252514 381.04647939 -74.32299456 371.22307921 -74.24342488 361.3996782 C-74.10084685 343.81289748 -73.95514101 326.22614416 -73.80761719 308.6394043 C-73.66626705 291.78851403 -73.52755507 274.9376046 -73.39160156 258.08666992 C-73.24140841 239.47121949 -73.08972823 220.85578223 -72.93561119 202.24036384 C-72.91902275 200.23653396 -72.90243471 198.23270409 -72.88584709 196.22887421 C-72.87769547 195.24441337 -72.86954385 194.25995253 -72.86114522 193.24565955 C-72.81305668 187.42947256 -72.76555167 181.6132812 -72.71859831 175.79708494 C-72.6884043 172.05799717 -72.65803866 168.31891081 -72.62760171 164.57982501 C-72.61264836 162.7424896 -72.59773367 160.90515388 -72.58285818 159.06781784 C-72.50397208 149.35726075 -72.41949292 139.64681479 -72.31792545 129.93646622 C-72.2916003 127.40166295 -72.26528771 124.86685956 -72.23899464 122.33205596 C-72.22167237 120.66715785 -72.20421294 119.00226116 -72.18661346 117.33736596 C-72.08358539 107.47843002 -72.01888069 97.6206767 -72.01626511 87.76118 C-72.01447271 81.45192636 -71.99182778 75.1429975 -71.95350174 68.83386032 C-71.93278911 65.19848812 -71.92399529 61.56405763 -71.94672883 57.92867708 C-72.05199462 39.92403963 -71.75001573 28.42530983 -59.22192383 14.70776367 C-49.46018204 5.61058827 -39.5298592 1.28388047 -26.25923157 0.5801239 C-25.14168062 0.51824214 -25.14168062 0.51824214 -24.00155288 0.45511025 C-16.00091066 0.04389747 -8.00934962 -0.00301773 0 0 Z " fill="#FE8836" transform="translate(153.034423828125,88.854736328125)"/>
<path d="M0 0 C1.16273438 0.61230469 2.32546875 1.22460938 3.5234375 1.85546875 C23.73588312 12.87011608 42.74417446 28.94262099 57 47 C55.64571539 50.10412761 54.22865747 51.91475724 51.625 54.0625 C48.04894456 57.08789473 44.56714644 60.19885755 41.125 63.375 C34.98652249 69.02313146 28.7883242 74.60272862 22.578125 80.171875 C17.9855167 84.29644678 13.4183487 88.44637292 8.875 92.625 C4.30971939 96.82101936 -0.31209703 100.94167077 -5 105 C-6.50064092 106.31176715 -8.00064969 107.62425786 -9.5 108.9375 C-10.66666667 109.95833333 -11.83333333 110.97916667 -13 112 C-15.50470752 109.50871055 -17.99286424 107.00744452 -20.4375 104.45703125 C-41.6784665 82.53609478 -69.59837921 67.5891696 -100.61328125 66.69921875 C-102.84627481 66.67999147 -105.07945137 66.67637667 -107.3125 66.6875 C-109.08125488 66.69487183 -109.08125488 66.69487183 -110.88574219 66.70239258 C-119.949642 66.82375075 -128.24308213 67.61526051 -137 70 C-138.22074219 70.32871094 -139.44148437 70.65742188 -140.69921875 70.99609375 C-154.72784237 75.23253286 -168.1790721 82.03527346 -179 92 C-179.88945312 92.79792969 -180.77890625 93.59585938 -181.6953125 94.41796875 C-202.30405958 113.84989322 -213.27474631 142.12155139 -214.2734375 170.21875 C-214.67702899 190.75801674 -212.67312713 210.16692394 -204 229 C-203.48695313 230.1446875 -202.97390625 231.289375 -202.4453125 232.46875 C-191.16044234 256.39059459 -171.75025813 273.87661718 -147 283 C-142.40949914 284.45501996 -137.74647324 285.59531978 -133.03149414 286.57373047 C-131.60392284 286.87327854 -130.18141015 287.19747665 -128.76342773 287.53955078 C-121.71557622 289.14759383 -114.89650774 289.2986821 -107.6875 289.25 C-105.9869043 289.26160156 -105.9869043 289.26160156 -104.25195312 289.2734375 C-71.5878496 289.1989894 -43.89934334 274.4710103 -21 252 C-18.57754528 249.40129223 -16.24226094 246.75545447 -14 244 C-9.18131729 247.4168841 -4.87252195 250.99033691 -0.76171875 255.23046875 C1.61657977 257.61931405 4.1557548 259.79127977 6.70703125 261.9921875 C9.46905882 264.41072612 12.17397712 266.88891376 14.875 269.375 C20.21614333 274.28814831 25.59707034 279.15479211 31 284 C39.95858617 292.03382888 39.95858617 292.03382888 44.15625 295.90625 C44.69137207 296.39947754 45.22649414 296.89270508 45.77783203 297.40087891 C46.81681418 298.35981719 47.85433077 299.32034663 48.89013672 300.28271484 C51.49190656 302.68414577 54.11986735 304.93886241 57 307 C55.38387963 310.90098021 52.72650197 313.71555514 49.875 316.75 C49.37782471 317.28294678 48.88064941 317.81589355 48.3684082 318.36499023 C47.36985734 319.43121761 46.36868456 320.49499629 45.36474609 321.55615234 C44.23133544 322.75525621 43.10843055 323.96427997 41.98828125 325.17578125 C21.2719309 346.88076437 -6.99755196 361.34892106 -35 371 C-36.01731201 371.36665771 -36.01731201 371.36665771 -37.05517578 371.74072266 C-47.19433116 375.36314053 -57.64751976 377.08783726 -68.25 378.75 C-68.93164215 378.85718353 -69.6132843 378.96436707 -70.31558228 379.07479858 C-84.479138 381.27261744 -98.48580855 382.23772384 -112.8125 382.25 C-113.88973831 382.25101212 -113.88973831 382.25101212 -114.98873901 382.25204468 C-128.17210455 382.23255047 -140.99568681 381.26922387 -154 379 C-154.99290039 378.82839355 -155.98580078 378.65678711 -157.00878906 378.47998047 C-211.34005823 368.78353865 -260.57245874 339.69513172 -292.50927734 294.2109375 C-297.10450048 287.39561802 -301.12602919 280.24382772 -305 273 C-305.50007568 272.06800781 -305.50007568 272.06800781 -306.01025391 271.1171875 C-318.91075712 246.56838992 -326.62122006 217.74713403 -327 190 C-327.02433105 189.03078613 -327.04866211 188.06157227 -327.07373047 187.06298828 C-328.4197301 130.4055999 -311.23452726 78.46904492 -271.86328125 36.9296875 C-248.75608128 13.06526642 -219.72758653 -4.93305149 -188 -15 C-186.98808594 -15.32355469 -185.97617187 -15.64710938 -184.93359375 -15.98046875 C-174.77087408 -19.05401433 -164.45381384 -21.18710198 -154 -23 C-153.12714355 -23.15388184 -152.25428711 -23.30776367 -151.35498047 -23.46630859 C-100.42086241 -32.07790779 -45.46933506 -24.73441838 0 0 Z " fill="#FFFEFE" transform="translate(688,260)"/>
<path d="M0 0 C1.80174403 0.00560449 3.60349266 0.00987055 5.40524292 0.01286316 C10.116912 0.0242448 14.82829778 0.05365347 19.53985596 0.0869751 C24.359865 0.11782104 29.17992042 0.13139936 34 0.14648438 C43.43501939 0.17853039 52.86982977 0.22964467 62.3046875 0.29296875 C59.49017375 1.72917849 56.72173899 2.86751732 53.7421875 3.91796875 C41.7876325 8.69626433 32.98002904 16.98808196 27.64959717 28.65460205 C24.7429635 35.84552616 24.60064795 42.59838093 24.66113281 50.25683594 C24.65429617 51.72485481 24.64526233 53.1928648 24.63423157 54.66085815 C24.6104348 58.6366442 24.6169451 62.61186591 24.62872028 66.58768368 C24.63568314 70.84508149 24.61328542 75.10233385 24.59417725 79.35968018 C24.5618511 87.50176956 24.55405804 95.64368268 24.55575156 103.78582883 C24.55695881 113.61117953 24.53178188 123.4364139 24.50390625 133.26171875 C24.4990057 135.02210869 24.49411304 136.78249866 24.48922825 138.54288864 C24.48188322 141.18844207 24.47450027 143.83399535 24.46695334 146.47954822 C24.45180013 151.85244657 24.43925356 157.22534426 24.42843848 162.59825301 C24.37865773 186.7804006 24.18858862 210.95687523 23.85546875 235.13671875 C23.76460331 241.74836093 23.67413584 248.36000787 23.58544922 254.97167969 C23.57392913 255.8303555 23.56240904 256.68903131 23.55053985 257.57372761 C23.20731696 283.39072505 22.99290279 309.20908576 22.76953125 335.02734375 C22.75862442 336.28636348 22.74771758 337.54538321 22.73648024 338.84255505 C22.60269448 354.3080477 22.471771 369.7735638 22.34189641 385.23908973 C22.25288602 395.8190909 22.16154125 406.39907098 22.06965727 416.97904754 C21.96839491 428.64664652 21.86889393 440.31425995 21.77011299 451.98188019 C21.72883358 456.85327928 21.6869493 461.72467255 21.64451408 466.59606171 C21.62431175 468.9271391 21.60412981 471.25821668 21.58396912 473.58929443 C21.57413787 474.71975905 21.56430663 475.85022367 21.55417746 477.01494479 C21.50754049 482.4758489 21.46513072 487.93672563 21.43237209 493.39773178 C21.41991386 495.46107739 21.40745288 497.52442298 21.39498901 499.58776855 C21.38912618 500.58125093 21.38326334 501.5747333 21.37722284 502.5983212 C21.33968496 508.22832108 21.26645546 513.85610847 21.15419596 519.48510814 C21.09030052 522.81813729 21.04526328 526.15126761 21.00345719 529.48463869 C20.97975235 530.98277925 20.94717925 532.48081436 20.90435779 533.97853041 C20.47603232 549.08034078 25.17065858 560.22204964 35.3046875 571.29296875 C40.56831633 575.82655198 46.05486043 579.28243712 52.3046875 582.29296875 C52.3046875 582.62296875 52.3046875 582.95296875 52.3046875 583.29296875 C42.57152904 584.39044027 32.83733361 584.62380982 23.0546875 584.85546875 C22.21619263 584.87598297 21.37769775 584.89649719 20.51379395 584.91763306 C10.36226591 585.16392949 0.2090566 585.4034368 -9.9453125 585.48046875 C-11.2432373 585.49992554 -11.2432373 585.49992554 -12.56738281 585.51977539 C-26.12678737 585.53999319 -35.5638066 581.38761864 -45.4453125 572.04296875 C-57.24009105 559.59292473 -60.1750808 547.83434486 -60.01011658 531.0536499 C-60.0063103 529.53478586 -60.0038129 528.01591806 -60.00251162 526.49704981 C-59.99507089 522.37537014 -59.96866997 518.25400716 -59.93867846 514.132438 C-59.90969492 509.71499905 -59.89793734 505.29750748 -59.88367367 500.88000107 C-59.84675051 490.60414039 -59.78166659 480.3285422 -59.71320266 470.05285144 C-59.68448477 465.62259449 -59.65945902 461.19231767 -59.63432693 456.76203918 C-59.50646259 434.51357975 -59.33465257 412.26557958 -59.14644701 390.01755692 C-59.06341381 380.19418447 -58.98388324 370.37078429 -58.90431356 360.54738328 C-58.76173552 342.96060256 -58.61602968 325.37384924 -58.46850586 307.78710938 C-58.32715572 290.9362191 -58.18844374 274.08530968 -58.05249023 257.234375 C-57.90229708 238.61892457 -57.75061691 220.00348731 -57.59649986 201.38806891 C-57.57991142 199.38423904 -57.56332339 197.38040916 -57.54673576 195.37657928 C-57.53858414 194.39211845 -57.53043253 193.40765761 -57.52203389 192.39336462 C-57.47394535 186.57717764 -57.42644034 180.76098628 -57.37948698 174.94479002 C-57.34929297 171.20570225 -57.31892733 167.46661589 -57.28849038 163.72753009 C-57.27353704 161.89019468 -57.25862234 160.05285896 -57.24374685 158.21552292 C-57.16486075 148.50496583 -57.0803816 138.79451986 -56.97881413 129.0841713 C-56.95248897 126.54936803 -56.92617638 124.01456463 -56.89988331 121.47976103 C-56.88256104 119.81486292 -56.86510161 118.14996624 -56.84750213 116.48507103 C-56.74447406 106.6261351 -56.67976936 96.76838177 -56.67715378 86.90888508 C-56.67536138 80.59963144 -56.65271645 74.29070258 -56.61439041 67.9815654 C-56.59367778 64.3461932 -56.58488396 60.71176271 -56.6076175 57.07638216 C-56.71288329 39.07174471 -56.4109044 27.57301491 -43.8828125 13.85546875 C-30.49485152 1.37894233 -17.50744163 -0.160801 0 0 Z " fill="#E27A2F" transform="translate(137.6953125,89.70703125)"/>
<path d="M0 0 C10.02390854 -0.0933116 20.04771116 -0.16407173 30.07196808 -0.20724869 C34.72831228 -0.22798754 39.384356 -0.25604953 44.04052734 -0.30175781 C48.54690946 -0.34571106 53.05300539 -0.36923966 57.55958557 -0.37950897 C59.26571651 -0.38681273 60.97183453 -0.40107058 62.67784119 -0.42292023 C89.07386359 -0.747067 108.6207296 7.97938406 128.13037109 25.34814453 C130.92528052 27.81750431 133.77096827 30.22446539 136.625 32.625 C137.68889056 33.52072826 138.75269296 34.41656123 139.81640625 35.3125 C140.33992676 35.75335937 140.86344727 36.19421875 141.40283203 36.6484375 C143.03422616 38.02896301 144.6566925 39.41938453 146.27734375 40.8125 C152.35604266 46.02552141 158.53187907 51.00009569 164.9765625 55.76171875 C168.13509439 58.10001174 171.26103822 60.47794851 174.375 62.875 C175.17804565 63.49145386 175.17804565 63.49145386 175.99731445 64.12036133 C178.88179135 66.34160184 181.74320954 68.5878416 184.58203125 70.8671875 C211.15305113 92.16424075 238.94448867 95.68882105 272 97 C272 97.33 272 97.66 272 98 C260.44595076 98.02332282 248.89190725 98.0410156 237.33783913 98.05181217 C231.97098576 98.05699784 226.60414868 98.0640156 221.23730469 98.07543945 C216.04365253 98.08642359 210.85001589 98.09230921 205.656353 98.09487724 C203.68955619 98.09670385 201.72276008 98.10026961 199.75597 98.10573006 C166.26863699 98.19487806 166.26863699 98.19487806 153.0625 95.375 C152.24458984 95.20387695 151.42667969 95.03275391 150.58398438 94.85644531 C136.42976371 91.70563987 123.57744272 86.85938827 112 78 C110.66178381 76.99565993 109.32321719 75.99178668 107.984375 74.98828125 C103.62461268 71.69921656 99.30781857 68.35667638 95 65 C94.03513672 64.25000732 94.03513672 64.25000732 93.05078125 63.48486328 C86.17236531 58.1331817 79.36032134 52.70884703 72.6328125 47.16796875 C70.88270474 45.72685627 69.12750388 44.29190597 67.3671875 42.86328125 C62.86813279 39.2102587 58.42306925 35.51242985 54.05615234 31.703125 C37.30839203 17.14556465 21.76664746 6.39973843 0 1 C0 0.67 0 0.34 0 0 Z " fill="#E27B31" transform="translate(245,674)"/>
<path d="M0 0 C0.76327103 -0.00140991 1.52654205 -0.00281982 2.3129425 -0.00427246 C4.77898867 -0.00639983 7.24490446 -0.00013502 9.7109375 0.0078125 C10.54851593 0.0093634 11.38609436 0.01091431 12.24905396 0.01251221 C29.01658899 0.04914584 45.50797296 0.34728175 62.0859375 3.1328125 C58.97156165 5.20906307 55.83975373 6.71187819 52.4609375 8.3203125 C35.3574602 16.71409189 22.37606148 31.71403847 9.18383789 45.13085938 C2.19485486 52.23066783 -4.75061512 59.08421181 -12.57495117 65.26806641 C-15.74253256 67.79327115 -18.67047364 70.52850503 -21.6015625 73.3203125 C-39.63269366 90.13011667 -57.27133355 93.65339261 -81.43432617 93.4140625 C-84.57808545 93.38304414 -87.7213373 93.37308553 -90.86523438 93.3671875 C-103.24148282 93.31906352 -115.56305942 92.91827894 -127.9140625 92.1328125 C-125.2113063 88.61660541 -123.40867158 86.57359668 -119.2890625 84.8828125 C-113.15057464 82.0121667 -108.77645068 77.77053588 -103.9140625 73.1328125 C-102.5879386 71.95795749 -101.25504007 70.7906847 -99.9140625 69.6328125 C-95.19802953 65.52043175 -90.55374323 61.33094236 -85.9140625 57.1328125 C-84.60888672 55.96878906 -84.60888672 55.96878906 -83.27734375 54.78125 C-75.84841451 48.0879609 -68.78035101 41.07000525 -61.76391602 33.94580078 C-56.98742746 29.11685628 -52.10102177 24.51812462 -46.9140625 20.1328125 C-46.05039062 19.39933594 -45.18671875 18.66585937 -44.296875 17.91015625 C-31.31234921 7.32934025 -17.06120815 -0.04656177 0 0 Z " fill="#E27B31" transform="translate(704.9140625,92.8671875)"/>
</svg>
